<svg width="341" height="397" viewBox="0 0 341 397" fill="none" xmlns="http://www.w3.org/2000/svg">
<path d="M132.544 73.502H204.841V0H251.834L303.646 50.6074V116.88L341 154.233V267.498L285.572 316.901L272.318 368.714H263.884V326.541H261.474L248.219 337.385V378.354L228.939 396.428H219.301V348.229L206.046 336.181H201.227L203.636 396.428H179.537V316.901H160.258V396.428H138.569V336.181H134.954L120.495 348.229V396.428H108.445L89.166 379.559V337.385L77.1162 326.541V368.714H66.2725L54.2227 316.901L0 267.498V154.233L33.7383 119.29V50.6074L84.3467 0H132.544V73.502ZM51.8125 300.032V302.442L56.6318 304.852L55.4268 298.827L51.8125 300.032ZM284.367 304.852L289.187 302.442V300.032L285.572 298.827L284.367 304.852ZM38.5576 286.777V291.598L45.7881 296.417L49.4023 297.622L48.1973 294.008L43.3779 286.777H38.5576ZM297.621 286.777L292.802 294.008L291.597 297.622L295.212 296.417L302.441 291.598V286.777H297.621ZM14.459 262.679V272.318L33.7383 289.188L36.1484 286.777V281.958L16.8691 262.679H14.459ZM324.13 262.679L304.852 281.958V286.777L307.261 289.188L326.54 272.318V262.679H324.13ZM48.1982 144.594V159.053H33.7383V177.127H48.1982V224.12H31.3291V236.17L50.6074 257.858H161.463V238.579H187.972V257.858H216.891V238.579H243.399V257.858H286.777L308.467 236.17V161.463L307.262 159.053H294.007V147.004L286.777 137.364H253.039V159.053H207.251V137.364H55.4277L48.1982 144.594ZM120.495 187.972H134.954V209.661H120.495V224.12H98.8057V209.661H81.9365V187.972H98.8057V171.103H120.495V187.972ZM259.063 209.661H207.251V187.972H259.063V209.661Z" fill="#D8D8D8"/>
</svg>
